{
  "title": "Project Almanac (2015) BDRip 1080p Dual Audio(Hindi+Eng)-TITAN ",
  "uid": 12369283,
  "size": 3482539852,
  "categoryP": "video",
  "categoryS": "hd___movies",
  "magnet": "?xt=urn:btih:45cadd03fca50439413f3b3e2d79aa0839569b2f&amp;dn=Project+Almanac+%282015%29+BDRip+1080p+Dual+Audio%28Hindi%2BEng%29-TITAN+&amp;tr=udp%3A%2F%2Ftracker.openbittorrent.com%3A80&amp;tr=udp%3A%2F%2Fopen.demonii.com%3A1337&amp;tr=udp%3A%2F%2Ftracker.coppersurfer.tk%3A6969&amp;tr=udp%3A%2F%2Fexodus.desync.com%3A6969",
  "seeders": 57,
  "leechers": 53,
  "uploader": "SaM",
  "files": 12,
  "time": 1441633518,
  "description": "RELEASE INFO\n\nProject Almanac (2015) BDRip 1080p Dual Audio Org DD (2.0 Hindi+5.1 Eng) x264 ~TITAN\n\nAUDIO PROPERLY FIXED\nORG UNTOUCHED DVD DD 2.0 448Kbps HINDI AUDIO\n\n************************************************************************************\nProject Almanac (2015) BDRip 1080p Dual Audio Org DD (2.0 Hindi+5.1 Eng) x264 ~TITAN\n************************************************************************************\n------------------------------------------------\nGeneral Information\n------------------------------------------------\nGeneral\nComplete name : Project Almanac (2015) BDRip 1080p Dual Audio Org DD (2.0 Hindi+5.1 Eng) x264 ~TITAN.mkv\nFormat : Matroska\nFormat version : Version 4 / Version 2\nFile size : 3.21 GiB\nDuration : 1h 41mn\nOverall bit rate : 4 511 Kbps\nMovie name : Project Almanac (2015)\n\n\nVideo\nID : 1\nFormat : AVC\nFormat/Info : Advanced Video Codec\nFormat profile : &lt;a class=&quot;__cf_email__&quot; href=&quot;/cdn-cgi/l/email-protection&quot; data-cfemail=&quot;bbf9dac8ded7d2d5defbf78f958a&quot;&gt;[email&amp;#160;protected]&lt;/a&gt;&lt;script data-cfhash='f9e31' type=&quot;text/javascript&quot;&gt;\n/* &lt;![CDATA[ */!function(){try{var t=&quot;currentScript&quot;in document?document.currentScript:function(){for(var t=document.getElementsByTagName(&quot;script&quot;),e=t.length;e--;)if(t[e].getAttribute(&quot;data-cfhash&quot;))return t[e]}();if(t&amp;&amp;t.previousSibling){var e,r,n,i,c=t.previousSibling,a=c.getAttribute(&quot;data-cfemail&quot;);if(a){for(e=&quot;&quot;,r=parseInt(a.substr(0,2),16),n=2;a.length-n;n+=2)i=parseInt(a.substr(n,2),16)^r,e+=String.fromCharCode(i);e=document.createTextNode(e),c.parentNode.replaceChild(e,c)}t.parentNode.removeChild(t);}}catch(u){}}()/* ]]&gt; */&lt;/script&gt;\nFormat settings, CABAC : No\nFormat settings, ReFrames : 1 frame\nCodec ID : V_MPEG4/ISO/AVC\nDuration : 1h 41mn\nBit rate : 3 500 Kbps\nWidth : 1 920 pixels\nHeight : 800 pixels\nDisplay aspect ratio : 2.40:1\nFrame rate mode : Constant\nFrame rate : 25.000 fps\nColor space : YUV\nChroma subsampling : 4:2:0\nBit depth : 8 bits\nScan type : Progressive\nBits/(Pixel*Frame) : 0.091\nStream size : 2.55 GiB (80%)\nDefault : Yes\nForced : No\n\nAudio #1\nID : 2\nFormat : AC-3\nFormat/Info : Audio Coding 3\nMode extension : CM (complete main)\nFormat settings, Endianness : Big\nCodec ID : A_AC3\nDuration : 1h 41mn\nBit rate mode : Constant\nBit rate : 448 Kbps\nChannel(s) : 2 channels\nChannel positions : Front: L R\nSampling rate : 48.0 KHz\nCompression mode : Lossy\nStream size : 326 MiB (31%)\nTitle : Hindi Org Untouched Dvd DD 2.0 448Kbps\nLanguage : Hindi\nDefault : Yes\nForced : No\n\nAudio #2\nID : 3\nFormat : AC-3\nFormat/Info : Audio Coding 3\nMode extension : CM (complete main)\nFormat settings, Endianness : Big\nCodec ID : A_AC3\nDuration : 1h 41mn\nBit rate mode : Constant\nBit rate : 384 Kbps\nChannel(s) : 6 channels\nChannel positions : Front: L R\nSampling rate : 48.0 KHz\nCompression mode : Lossy\nStream size : 280 MiB (9%)\nTitle : English Org DD 5.1 384Kbps\nLanguage : English\nDefault : No\nForced : No\n\nText #1\nID : 4\nFormat : PGS\nMuxing mode : zlib\nCodec ID : S_HDMV/PGS\nCodec ID/Info : Picture based subtitle format used on BDs/HD-DVDs\nTitle : Hindi Org Bluray PGS\nLanguage : Hindi\nDefault : Yes\nForced : No\n\nText #2\nID : 5\nFormat : PGS\nMuxing mode : zlib\nCodec ID : S_HDMV/PGS\nCodec ID/Info : Picture based subtitle format used on BDs/HD-DVDs\nTitle : English Bluray PGS\nLanguage : English\nDefault : No\nForced : No \n &lt;a href=&quot;\nhttp://extraimago.com/image/Rxm&quot; rel=&quot;nofollow&quot; target=&quot;_NEW&quot;&gt;\nhttp://extraimago.com/image/Rxm&lt;/a&gt; &lt;a href=&quot;\nhttp://extraimago.com/image/Rxi&quot; rel=&quot;nofollow&quot; target=&quot;_NEW&quot;&gt;\nhttp://extraimago.com/image/Rxi&lt;/a&gt; &lt;a href=&quot;\nhttp://extraimago.com/image/RxI&quot; rel=&quot;nofollow&quot; target=&quot;_NEW&quot;&gt;\nhttp://extraimago.com/image/RxI&lt;/a&gt; &lt;a href=&quot;\nhttp://extraimago.com/image/Rxl&quot; rel=&quot;nofollow&quot; target=&quot;_NEW&quot;&gt;\nhttp://extraimago.com/image/Rxl&lt;/a&gt; &lt;a href=&quot;\nhttp://extraimago.com/image/Rxd&quot; rel=&quot;nofollow&quot; target=&quot;_NEW&quot;&gt;\nhttp://extraimago.com/image/Rxd&lt;/a&gt; &lt;a href=&quot;\nhttp://extraimago.com/image/Rxh&quot; rel=&quot;nofollow&quot; target=&quot;_NEW&quot;&gt;\nhttp://extraimago.com/image/Rxh&lt;/a&gt; &lt;a href=&quot;\nhttp://extraimago.com/image/Rxb&quot; rel=&quot;nofollow&quot; target=&quot;_NEW&quot;&gt;\nhttp://extraimago.com/image/Rxb&lt;/a&gt; &lt;a href=&quot;\nhttp://extraimago.com/image/Rx3&quot; rel=&quot;nofollow&quot; target=&quot;_NEW&quot;&gt;\nhttp://extraimago.com/image/Rx3&lt;/a&gt; &lt;a href=&quot;\nhttp://extraimago.com/image/Rx9&quot; rel=&quot;nofollow&quot; target=&quot;_NEW&quot;&gt;\nhttp://extraimago.com/image/Rx9&lt;/a&gt;",
  "parsed": {
    "xt": "urn:btih:45cadd03fca50439413f3b3e2d79aa0839569b2f",
    "dn": "Project Almanac (2015) BDRip 1080p Dual Audio(Hindi Eng)-TITAN ",
    "tr": [
      "udp://exodus.desync.com:6969",
      "udp://open.demonii.com:1337",
      "udp://tracker.coppersurfer.tk:6969",
      "udp://tracker.openbittorrent.com:80"
    ],
    "infoHash": "45cadd03fca50439413f3b3e2d79aa0839569b2f",
    "infoHashBuffer": {
      "type": "Buffer",
      "data": [
        69,
        202,
        221,
        3,
        252,
        165,
        4,
        57,
        65,
        63,
        59,
        62,
        45,
        121,
        170,
        8,
        57,
        86,
        155,
        47
      ]
    },
    "name": "Project Almanac (2015) BDRip 1080p Dual Audio(Hindi Eng)-TITAN ",
    "announce": [
      "udp://exodus.desync.com:6969",
      "udp://open.demonii.com:1337",
      "udp://tracker.coppersurfer.tk:6969",
      "udp://tracker.openbittorrent.com:80"
    ],
    "urlList": []
  },
  "previous": 11,
  "peers": 10,
  "last_updated": "2016-12-26T22:54:54.848Z"
}